<svg width="24" height="24" viewBox="0 0 24 24" fill="none" xmlns="http://www.w3.org/2000/svg">
<g clip-path="url(#clip0)">
<rect width="24" height="24" rx="4" fill="#227AEF"/>
<path d="M25.3333 11.9994C25.3333 4.63555 19.3638 -1.33398 12 -1.33398C4.63619 -1.33398 -1.33334 4.63555 -1.33334 11.9994C-1.33334 18.6544 3.54246 24.1705 9.91666 25.1707V15.8535H6.53125V11.9994H9.91666V9.06186C9.91666 5.72018 11.9072 3.87436 14.9529 3.87436C16.4116 3.87436 17.9375 4.13477 17.9375 4.13477V7.41602H16.2562C14.5999 7.41602 14.0833 8.44381 14.0833 9.49825V11.9994H17.7812L17.1901 15.8535H14.0833V25.1707C20.4575 24.1705 25.3333 18.6544 25.3333 11.9994" fill="#1877F2"/>
<path d="M17.1901 15.8537L17.7813 11.9995H14.0833V9.49838C14.0833 8.44397 14.5999 7.41617 16.2562 7.41617H17.9375V4.13492C17.9375 4.13492 16.4117 3.87451 14.9529 3.87451C11.9072 3.87451 9.91667 5.72033 9.91667 9.06201V11.9995H6.53126V15.8537H9.91667V25.1709C10.6059 25.2789 11.3024 25.333 12 25.3328C12.7088 25.3328 13.4045 25.2774 14.0833 25.1709V15.8537H17.1901Z" fill="white"/>
</g>
<defs>
<clipPath id="clip0">
<rect width="24" height="24" rx="4" fill="white"/>
</clipPath>
</defs>
</svg>
