<svg width="24" height="24" viewBox="0 0 24 24" fill="none" xmlns="http://www.w3.org/2000/svg">
<g clip-path="url(#clip0)">
<path d="M12.0039 -0.000976562C6.99261 -0.000976562 5.52701 0.00419311 5.24212 0.0278259C4.21373 0.11331 3.5738 0.275231 2.87663 0.622338C2.33935 0.88913 1.91563 1.19839 1.49744 1.6319C0.735834 2.42249 0.274256 3.39513 0.107165 4.55129C0.0259273 5.11256 0.00229457 5.22704 -0.00250583 8.09399C-0.00435214 9.04964 -0.00250583 10.3073 -0.00250583 11.9943C-0.00250583 17.0015 0.0030331 18.4656 0.0270351 18.75C0.110119 19.7507 0.267055 20.3803 0.599391 21.0689C1.23452 22.3872 2.44755 23.3768 3.87659 23.7461C4.3714 23.8735 4.91791 23.9436 5.61951 23.9769C5.91676 23.9898 8.94656 23.999 11.9782 23.999C15.0098 23.999 18.0415 23.9953 18.3314 23.9806C19.1437 23.9423 19.6155 23.879 20.137 23.7442C20.8456 23.5625 21.506 23.2283 22.072 22.765C22.6381 22.3016 23.0961 21.7203 23.4142 21.0615C23.7401 20.3895 23.9054 19.7359 23.9801 18.7874C23.9964 18.5807 24.0032 15.2837 24.0032 11.9912C24.0032 8.6981 23.9958 5.40724 23.9796 5.20045C23.9039 4.23668 23.7386 3.58862 23.4022 2.90364C23.1262 2.34291 22.8197 1.92417 22.3748 1.49601C21.5809 0.737548 20.6097 0.27597 19.4522 0.109064C18.8915 0.0280105 18.7798 0.00400848 15.9107 -0.000976562H12.0039Z" fill="url(#paint0_radial)"/>
<path d="M12.0039 -0.000976562C6.99261 -0.000976562 5.52701 0.00419311 5.24212 0.0278259C4.21373 0.11331 3.5738 0.275231 2.87663 0.622338C2.33935 0.88913 1.91563 1.19839 1.49744 1.6319C0.735834 2.42249 0.274256 3.39513 0.107165 4.55129C0.0259273 5.11256 0.00229457 5.22704 -0.00250583 8.09399C-0.00435214 9.04964 -0.00250583 10.3073 -0.00250583 11.9943C-0.00250583 17.0015 0.0030331 18.4656 0.0270351 18.75C0.110119 19.7507 0.267055 20.3803 0.599391 21.0689C1.23452 22.3872 2.44755 23.3768 3.87659 23.7461C4.3714 23.8735 4.91791 23.9436 5.61951 23.9769C5.91676 23.9898 8.94656 23.999 11.9782 23.999C15.0098 23.999 18.0415 23.9953 18.3314 23.9806C19.1437 23.9423 19.6155 23.879 20.137 23.7442C20.8456 23.5625 21.506 23.2283 22.072 22.765C22.6381 22.3016 23.0961 21.7203 23.4142 21.0615C23.7401 20.3895 23.9054 19.7359 23.9801 18.7874C23.9964 18.5807 24.0032 15.2837 24.0032 11.9912C24.0032 8.6981 23.9958 5.40724 23.9796 5.20045C23.9039 4.23668 23.7386 3.58862 23.4022 2.90364C23.1262 2.34291 22.8197 1.92417 22.3748 1.49601C21.5809 0.737548 20.6097 0.27597 19.4522 0.109064C18.8915 0.0280105 18.7798 0.00400848 15.9107 -0.000976562H12.0039Z" fill="url(#paint1_radial)"/>
<path d="M11.9983 3.13867C9.59144 3.13867 9.28939 3.1492 8.34408 3.19222C7.40063 3.23542 6.75664 3.38479 6.19315 3.60394C5.61027 3.8303 5.11583 4.13309 4.62324 4.62587C4.13028 5.11847 3.82749 5.61291 3.6004 6.19561C3.38069 6.75929 3.23114 7.40346 3.18867 8.34656C3.14658 9.29187 3.1355 9.59411 3.1355 12.001C3.1355 14.4078 3.14621 14.7089 3.18904 15.6543C3.23243 16.5977 3.38179 17.2417 3.60076 17.8052C3.82731 18.3881 4.1301 18.8825 4.62287 19.3751C5.11528 19.8681 5.60972 20.1716 6.19223 20.398C6.75608 20.6171 7.40026 20.7665 8.34353 20.8097C9.28883 20.8527 9.5907 20.8633 11.9973 20.8633C14.4044 20.8633 14.7055 20.8527 15.6508 20.8097C16.5943 20.7665 17.239 20.6171 17.8028 20.398C18.3855 20.1716 18.8792 19.8681 19.3716 19.3751C19.8646 18.8825 20.1674 18.3881 20.3945 17.8054C20.6123 17.2417 20.7619 16.5975 20.8062 15.6544C20.8487 14.7091 20.8598 14.4078 20.8598 12.001C20.8598 9.59411 20.8487 9.29206 20.8062 8.34674C20.7619 7.40328 20.6123 6.75929 20.3945 6.19579C20.1674 5.61291 19.8646 5.11847 19.3716 4.62587C18.8787 4.13291 18.3857 3.83012 17.8023 3.60394C17.2373 3.38479 16.593 3.23542 15.6495 3.19222C14.7042 3.1492 14.4033 3.13867 11.9957 3.13867H11.9983ZM11.2033 4.73573C11.4392 4.73536 11.7025 4.73573 11.9983 4.73573C14.3645 4.73573 14.6449 4.74422 15.5793 4.78669C16.4434 4.8262 16.9124 4.97058 17.2248 5.09188C17.6383 5.25251 17.9332 5.44453 18.2432 5.75471C18.5534 6.06489 18.7454 6.3603 18.9064 6.77387C19.0277 7.0859 19.1722 7.55486 19.2116 8.41893C19.254 9.35317 19.2633 9.63381 19.2633 11.9989C19.2633 14.3641 19.254 14.6447 19.2116 15.5789C19.1721 16.443 19.0277 16.912 18.9064 17.224C18.7457 17.6376 18.5534 17.932 18.2432 18.242C17.933 18.5522 17.6385 18.7442 17.2248 18.9049C16.9127 19.0267 16.4434 19.1707 15.5793 19.2102C14.6451 19.2527 14.3645 19.2619 11.9983 19.2619C9.63187 19.2619 9.35142 19.2527 8.4172 19.2102C7.55313 19.1704 7.08417 19.026 6.77159 18.9047C6.35802 18.7441 6.06262 18.552 5.75244 18.2419C5.44226 17.9317 5.25025 17.637 5.08925 17.2233C4.96795 16.9112 4.82338 16.4423 4.78406 15.5782C4.74159 14.644 4.7331 14.3633 4.7331 11.9967C4.7331 9.63011 4.74159 9.35095 4.78406 8.41672C4.82357 7.55265 4.96795 7.08368 5.08925 6.77129C5.24988 6.35771 5.44226 6.0623 5.75244 5.75212C6.06262 5.44194 6.35802 5.24993 6.77159 5.08893C7.08399 4.96707 7.55313 4.82306 8.4172 4.78337C9.23474 4.74644 9.55156 4.73536 11.2033 4.73351V4.73573ZM16.7289 6.20724C16.5185 6.20724 16.3129 6.26962 16.138 6.38649C15.9631 6.50337 15.8268 6.66948 15.7463 6.86383C15.6658 7.05817 15.6448 7.27202 15.6858 7.47832C15.7269 7.68463 15.8282 7.87412 15.977 8.02284C16.1258 8.17155 16.3153 8.27281 16.5216 8.3138C16.7279 8.35479 16.9418 8.33368 17.1361 8.25313C17.3304 8.17258 17.4965 8.03622 17.6133 7.86128C17.7301 7.68634 17.7924 7.4807 17.7923 7.27034C17.7923 6.68322 17.316 6.20687 16.7289 6.20687V6.20724ZM11.9983 7.44981C9.48491 7.44981 7.44715 9.48758 7.44715 12.001C7.44715 14.5143 9.48491 16.5512 11.9983 16.5512C14.5116 16.5512 16.5488 14.5143 16.5488 12.001C16.5488 9.48758 14.5114 7.44981 11.9981 7.44981H11.9983ZM11.9983 9.04686C13.6297 9.04686 14.9523 10.3694 14.9523 12.001C14.9523 13.6324 13.6297 14.9551 11.9983 14.9551C10.3667 14.9551 9.0442 13.6324 9.0442 12.001C9.0442 10.3694 10.3667 9.04686 11.9983 9.04686V9.04686Z" fill="white"/>
</g>
<defs>
<radialGradient id="paint0_radial" cx="0" cy="0" r="1" gradientUnits="userSpaceOnUse" gradientTransform="translate(6.37344 25.8475) rotate(-90) scale(23.7858 22.1287)">
<stop stop-color="#FFDD55"/>
<stop offset="0.1" stop-color="#FFDD55"/>
<stop offset="0.5" stop-color="#FF543E"/>
<stop offset="1" stop-color="#C837AB"/>
</radialGradient>
<radialGradient id="paint1_radial" cx="0" cy="0" r="1" gradientUnits="userSpaceOnUse" gradientTransform="translate(-4.02455 1.72794) rotate(78.6776) scale(10.6325 43.8384)">
<stop stop-color="#3771C8"/>
<stop offset="0.128" stop-color="#3771C8"/>
<stop offset="1" stop-color="#6600FF" stop-opacity="0"/>
</radialGradient>
<clipPath id="clip0">
<rect width="24" height="24" fill="white"/>
</clipPath>
</defs>
</svg>
