<?xml version="1.0" standalone="no"?>
<!DOCTYPE svg PUBLIC "-//W3C//DTD SVG 20010904//EN"
 "http://www.w3.org/TR/2001/REC-SVG-20010904/DTD/svg10.dtd">
<svg version="1.0" xmlns="../../../../www.w3.org/2000/svg.html"
 width="512.000000pt" height="512.000000pt" viewBox="0 0 512.000000 512.000000"
 preserveAspectRatio="xMidYMid meet">
<metadata>
Created by potrace 1.14, written by Peter Selinger 2001-2017
</metadata>
<g transform="translate(0.000000,512.000000) scale(0.100000,-0.100000)"
fill="#000000" stroke="none">
<path d="M2378 4225 c-2 -2 -26 -6 -53 -10 -172 -20 -394 -92 -555 -178 -67
-36 -187 -112 -200 -127 -3 -3 -47 -38 -98 -78 -52 -40 -106 -84 -120 -97
-154 -134 -207 -165 -349 -201 -92 -23 -122 -27 -277 -39 -164 -13 -300 -36
-438 -76 -55 -16 -71 -25 -83 -49 -31 -60 -14 -100 60 -140 81 -44 185 -137
266 -238 73 -91 204 -326 262 -472 61 -151 137 -363 170 -470 157 -506 556
-915 1058 -1084 172 -58 291 -78 484 -81 295 -6 506 41 762 166 396 195 697
537 846 964 19 55 46 125 60 155 13 30 50 125 82 210 167 452 370 741 605 860
53 27 69 46 70 81 0 47 -33 75 -117 98 -100 26 -202 47 -278 56 -33 4 -71 9
-85 11 -14 1 -56 6 -95 9 -165 14 -192 18 -272 41 -46 13 -110 37 -141 53 -47
24 -174 122 -293 226 -43 37 -186 135 -198 135 -6 0 -11 5 -11 10 0 6 -4 10
-9 10 -6 0 -29 13 -53 29 -64 43 -207 109 -319 146 -87 30 -143 43 -289 71
-37 7 -386 15 -392 9z m-383 -1726 c87 -22 166 -75 240 -160 70 -81 121 -167
107 -181 -11 -11 -129 -46 -182 -54 -184 -27 -329 13 -476 131 -62 50 -126
120 -128 140 -2 28 167 109 254 122 19 3 37 7 39 9 9 8 107 4 146 -7z m1360
-4 c33 -8 102 -36 153 -61 l93 -45 -31 -38 c-51 -65 -147 -148 -213 -185 -139
-78 -290 -90 -475 -37 -81 23 -92 31 -81 58 28 74 145 211 224 261 94 61 211
77 330 47z"/>
</g>
</svg>
