<svg width="24" height="24" viewBox="0 0 24 24" fill="none" xmlns="http://www.w3.org/2000/svg">
<g clip-path="url(#clip0)">
<rect width="24" height="24" rx="4" fill="#010101"/>
<path d="M10.4474 10.3155V9.68393C10.2369 9.6313 10.0264 9.63135 9.81587 9.63135C7.1317 9.63135 4.97385 11.7892 4.97385 14.4733C4.97385 16.1049 5.81594 17.5785 7.02644 18.4206L6.97381 18.368C6.18435 17.5259 5.76331 16.3681 5.76331 15.1576C5.76331 12.4734 7.86853 10.3681 10.4474 10.3155V10.3155Z" fill="#25F4EE"/>
<path d="M10.5528 17.3682C11.7633 17.3682 12.7106 16.4208 12.7633 15.2103V4.6842H14.658C14.6053 4.47368 14.6053 4.26315 14.6053 4H11.9738V14.5261C11.9212 15.684 10.9738 16.6314 9.76332 16.6314C9.3949 16.6314 9.02649 16.5261 8.76334 16.3682C9.18438 16.9472 9.81595 17.3682 10.5528 17.3682V17.3682ZM18.2894 8.26309V7.63152C17.5526 7.63152 16.8684 7.421 16.2894 7.05258C16.8157 7.63152 17.4999 8.10519 18.2894 8.26309V8.26309Z" fill="#25F4EE"/>
<path d="M16.2894 7.05236C15.7105 6.42079 15.3947 5.5787 15.3947 4.63135H14.6578C14.8684 5.68396 15.4999 6.52605 16.2894 7.05236V7.05236ZM9.81587 12.2101C8.60536 12.2101 7.60538 13.2101 7.60538 14.4206C7.60538 15.2627 8.13168 15.9995 8.81588 16.3679C8.55273 15.9995 8.39484 15.5785 8.39484 15.1048C8.39484 13.8943 9.39482 12.8943 10.6053 12.8943C10.8158 12.8943 11.0264 12.9469 11.2369 12.9996V10.3154C11.0264 10.2628 10.8158 10.2628 10.6053 10.2628H10.5001V12.2627C10.2369 12.2627 10.0264 12.2101 9.81587 12.2101V12.2101Z" fill="#FE2C55"/>
<path d="M18.2894 8.26318V10.2632C16.921 10.2632 15.6578 9.8421 14.6578 9.10527V14.4736C14.6578 17.1578 12.5 19.3156 9.81582 19.3156C8.76321 19.3156 7.81586 18.9998 7.0264 18.4735C7.92112 19.4209 9.18426 19.9998 10.5527 19.9998C13.2368 19.9998 15.3947 17.842 15.3947 15.1578V9.78947C16.4473 10.5263 17.7104 10.9473 19.0262 10.9473V8.31581C18.8157 8.31581 18.5525 8.31581 18.2894 8.26318V8.26318Z" fill="#FE2C55"/>
<path d="M14.6578 14.4733V9.10496C15.7104 9.84184 16.9735 10.2628 18.2893 10.2628V8.21023C17.4998 8.05234 16.8156 7.6313 16.2893 7.05236C15.4473 6.52605 14.8683 5.63133 14.7104 4.63135H12.7631V15.1575C12.7105 16.3154 11.7631 17.2628 10.5526 17.2628C9.81577 17.2628 9.1842 16.8943 8.76315 16.368C8.07895 16.0522 7.60528 15.3154 7.60528 14.4733C7.60528 13.2628 8.60526 12.2629 9.81577 12.2629C10.0263 12.2629 10.2368 12.3154 10.4473 12.3681V10.3155C7.8158 10.3681 5.71057 12.526 5.71057 15.1575C5.71057 16.4207 6.18425 17.5785 7.02634 18.4732C7.8158 18.9995 8.76315 19.368 9.81577 19.368C12.4999 19.3154 14.6578 17.1048 14.6578 14.4733Z" fill="white"/>
</g>
<defs>
<clipPath id="clip0">
<rect width="24" height="24" rx="4" fill="white"/>
</clipPath>
</defs>
</svg>
