<svg width="24" height="24" viewBox="0 0 24 24" fill="none" xmlns="http://www.w3.org/2000/svg">
<rect width="24" height="24" rx="4" fill="#FF0000"/>
<path d="M10.4516 14.251V9.74877L14.4086 11.9999L10.4516 14.251ZM19.2535 8.33212C19.0794 7.67651 18.5664 7.16018 17.915 6.98496C16.7343 6.6665 11.9999 6.6665 11.9999 6.6665C11.9999 6.6665 7.26561 6.6665 6.08496 6.98496C5.4336 7.16018 4.92057 7.67651 4.74644 8.33212C4.43005 9.52045 4.43005 11.9999 4.43005 11.9999C4.43005 11.9999 4.43005 14.4792 4.74644 15.6676C4.92057 16.3232 5.43354 16.8395 6.08496 17.0148C7.26561 17.3332 11.9999 17.3332 11.9999 17.3332C11.9999 17.3332 16.7343 17.3332 17.915 17.0148C18.5664 16.8395 19.0794 16.3232 19.2535 15.6676C19.5699 14.4792 19.5699 11.9998 19.5699 11.9998C19.5699 11.9998 19.5699 9.52045 19.2535 8.33212" fill="white"/>
</svg>
